<?xml version="1.0" encoding="UTF-8" standalone="no"?>
<!-- Created with Inkscape (http://www.inkscape.org/) -->

<svg
   width="535.36285"
   height="236.6772"
   viewBox="0 0 141.64802 62.620844"
   version="1.1"
   id="svg5"
   xml:space="preserve"
   inkscape:version="1.2.2 (b0a8486541, 2022-12-01)"
   sodipodi:docname="logo_.svg"
   xmlns:inkscape="http://www.inkscape.org/namespaces/inkscape"
   xmlns:sodipodi="http://sodipodi.sourceforge.net/DTD/sodipodi-0.dtd"
   xmlns="http://www.w3.org/2000/svg"
   xmlns:svg="http://www.w3.org/2000/svg"><sodipodi:namedview
     id="namedview7"
     pagecolor="#ffffff"
     bordercolor="#000000"
     borderopacity="0.25"
     inkscape:showpageshadow="2"
     inkscape:pageopacity="0.0"
     inkscape:pagecheckerboard="0"
     inkscape:deskcolor="#d1d1d1"
     inkscape:document-units="px"
     showgrid="false"
     showborder="false"
     borderlayer="true"
     shape-rendering="auto"
     inkscape:zoom="0.31090769"
     inkscape:cx="651.31873"
     inkscape:cy="640.06137"
     inkscape:window-width="1600"
     inkscape:window-height="876"
     inkscape:window-x="0"
     inkscape:window-y="0"
     inkscape:window-maximized="1"
     inkscape:current-layer="layer1"><inkscape:grid
       type="xygrid"
       id="grid9"
       originx="0"
       originy="0" /></sodipodi:namedview><defs
     id="defs2" /><g
     inkscape:label="Layer 1"
     inkscape:groupmode="layer"
     id="layer1"
     transform="translate(-192.76056,-14.717875)"><path
       style="fill:none;stroke:#000000;stroke-width:0.47625;stroke-dasharray:none;stroke-opacity:0.208643"
       d="M 224.88968,63.503696 V 29.107866"
       id="path2443-9"
       inkscape:export-filename="agenday-icones/versao_com_texto_lightmode.png"
       inkscape:export-xdpi="96"
       inkscape:export-ydpi="96" /><path
       style="fill:none;stroke:#000000;stroke-width:0.47625;stroke-dasharray:none;stroke-opacity:0.208643"
       d="m 206.36884,46.305776 h 37.04167"
       id="path2441-2" /><path
       style="fill:none;stroke:#000000;stroke-width:0.47625;stroke-dasharray:none;stroke-opacity:0.208643"
       d="m 215.62926,29.107866 v 17.19791"
       id="path2445-2" /><path
       style="fill:none;stroke:#000000;stroke-width:0.456302;stroke-dasharray:none;stroke-opacity:0.208643"
       d="m 234.1501,29.303946 v 17.00183"
       id="path2447-8" /><path
       style="fill:none;stroke:#000000;stroke-width:0.47625;stroke-dasharray:none;stroke-opacity:0.208643"
       d="m 210.3376,39.691196 h 29.10416"
       id="path2449-9" /><path
       style="fill:#000000;stroke-width:0.264583"
       d="m 209.41532,60.298356 13.52574,-28.42951"
       id="path346-7" /><rect
       style="fill:#135184;fill-opacity:1;stroke:none;stroke-width:0.268634;stroke-dasharray:none;stroke-opacity:1"
       id="rect1140-3"
       width="1.8254203"
       height="3.0775585"
       x="224.33243"
       y="20.095322"
       ry="0.62972075" /><rect
       style="fill:#135184;fill-opacity:1;stroke:none;stroke-width:0.205705;stroke-dasharray:none;stroke-opacity:1"
       id="rect1142-6"
       width="0.96437472"
       height="1.8825736"
       x="159.45172"
       y="140.70537"
       ry="0.23178889"
       transform="rotate(-34.944382)" /><rect
       style="fill:#135184;fill-opacity:1;stroke:none;stroke-width:0.264583;stroke-dasharray:none;stroke-opacity:1"
       id="rect1144-1"
       width="1.044402"
       height="1.9475359"
       x="54.401089"
       y="196.9043"
       ry="0.23248847"
       transform="rotate(-65.093477)" /><rect
       style="fill:#135184;fill-opacity:1;stroke:none;stroke-width:0.260001;stroke-dasharray:none;stroke-opacity:1"
       id="rect1146-2"
       width="3.0083196"
       height="1.8560203"
       x="197.76993"
       y="45.297684"
       ry="0.11778968" /><rect
       style="fill:#135184;fill-opacity:1;stroke:none;stroke-width:0.220265;stroke-dasharray:none;stroke-opacity:1"
       id="rect1906-9"
       width="1.7370628"
       height="0.69499105"
       x="155.42712"
       y="141.30881"
       ry="0.045492906"
       transform="rotate(-25.975489)" /><rect
       style="fill:#135184;fill-opacity:1;stroke:none;stroke-width:0.242564;stroke-dasharray:none;stroke-opacity:1"
       id="rect1908-3"
       width="1.7895533"
       height="0.78694993"
       x="49.725887"
       y="216.77986"
       ry="0.050098326"
       transform="rotate(-59.130815)" /><rect
       style="fill:#135184;fill-opacity:1;stroke:none;stroke-width:0.248049;stroke-dasharray:none;stroke-opacity:1"
       id="rect1928-1"
       width="2.1434445"
       height="3.2662103"
       x="224.222"
       y="69.102516"
       ry="0.28497112" /><ellipse
       style="fill:#135184;fill-opacity:1;stroke:none;stroke-width:0.264583;stroke-dasharray:none;stroke-opacity:1"
       id="path2001-9"
       cx="232.9433"
       cy="17.982315"
       rx="1.2762717"
       ry="1.3051027" /><ellipse
       style="fill:#135184;fill-opacity:1;stroke:none;stroke-width:0.264583;stroke-dasharray:none;stroke-opacity:1"
       id="ellipse2003-4"
       cx="240.07471"
       cy="21.450531"
       rx="1.2762717"
       ry="1.3051027" /><ellipse
       style="fill:#1ea7a0;fill-opacity:1;stroke:none;stroke-width:0.264583;stroke-dasharray:none;stroke-opacity:1"
       id="ellipse2005-7"
       cx="245.43471"
       cy="25.997879"
       rx="1.2762717"
       ry="1.3051027" /><ellipse
       style="fill:#1ea7a0;fill-opacity:1;stroke:none;stroke-width:0.264583;stroke-dasharray:none;stroke-opacity:1"
       id="ellipse2007-8"
       cx="250.30347"
       cy="32.86879"
       rx="1.2762717"
       ry="1.3051027" /><path
       style="fill:none;stroke:#000000;stroke-width:0.47625;stroke-dasharray:none;stroke-opacity:0.208643"
       d="m 209.01468,29.107866 v 34.39583"
       id="path2435-4" /><path
       style="fill:none;stroke:#000000;stroke-width:0.47625;stroke-dasharray:none;stroke-opacity:0.208643"
       d="m 206.36884,31.753696 h 37.04167"
       id="path2437-5" /><path
       style="fill:none;stroke:#000000;stroke-width:0.47625;stroke-dasharray:none;stroke-opacity:0.208643"
       d="m 240.76468,29.107866 v 34.39583"
       id="path2439-0" /><path
       style="fill:none;stroke:#000000;stroke-width:0.47625;stroke-dasharray:none;stroke-opacity:0.208643"
       d="m 206.36884,60.857866 h 37.04167"
       id="path2451-3" /><path
       style="fill:#135184;fill-opacity:1;stroke:none;stroke-width:0.270788;stroke-dasharray:none;stroke-opacity:0.208643"
       d="m 192.76056,44.325386 c 0,-1.99882 1.02791,-6.83932 1.95037,-9.18439 0.65084,-1.65456 1.53519,-3.53528 1.66235,-3.53528 0.0941,0 2.8745,1.32938 2.9705,1.42028 0.0216,0.0204 -0.26209,0.67388 -0.63034,1.45215 -1.27292,2.6903 -2.22287,6.21818 -2.43655,9.04876 l -0.0994,1.31731 h -1.70845 -1.70844 z"
       id="path3381-6" /><path
       style="fill:#135184;fill-opacity:1;stroke:none;stroke-width:0.270788;stroke-dasharray:none;stroke-opacity:0.208643"
       d="m 199.19176,30.073246 c -0.80672,-0.39165 -1.46677,-0.77398 -1.46677,-0.84961 0,-0.28977 2.34993,-3.27039 3.65307,-4.63349 1.60165,-1.67536 3.17615,-3.016241 5.01583,-4.271601 1.20031,-0.81906 1.33624,-0.87749 1.43299,-0.61594 0.0588,0.15892 0.45009,0.76993 0.86956,1.35779 0.41948,0.58787 0.76127,1.119381 0.75955,1.181131 -0.002,0.0618 -0.42483,0.38939 -0.94024,0.72807 -2.36806,1.5561 -5.13907,4.19215 -6.87637,6.54146 -0.51542,0.69699 -0.94696,1.26884 -0.95899,1.27077 -0.012,0.002 -0.68191,-0.31692 -1.48863,-0.70858 z"
       id="path3383-1" /><path
       style="fill:#135184;fill-opacity:1;stroke:none;stroke-width:0.270788;stroke-dasharray:none;stroke-opacity:0.208643"
       d="m 195.75586,59.497876 c -0.89328,-1.90815 -1.78222,-4.43566 -2.21728,-6.30439 -0.3044,-1.30745 -0.77802,-4.51744 -0.77802,-5.27301 v -0.36839 h 1.69957 1.69957 l 0.17289,1.54718 c 0.34982,3.13048 1.16973,6.06621 2.46263,8.81759 0.40426,0.86029 0.73502,1.58742 0.73502,1.61583 0,0.0284 -0.68031,0.39305 -1.5118,0.81031 l -1.5118,0.75866 z"
       id="path3385-0" /><path
       style="fill:#135184;fill-opacity:1;stroke:none;stroke-width:0.270788;stroke-dasharray:none;stroke-opacity:0.208643"
       d="m 207.42309,72.571956 c -2.92763,-1.80708 -6.33105,-4.93165 -8.38815,-7.70088 -0.63773,-0.8585 -1.15951,-1.60587 -1.15951,-1.66081 0,-0.12463 2.98212,-1.60093 3.04799,-1.5089 2.39755,3.34989 4.86522,5.76401 7.83413,7.66415 0.71104,0.45508 1.29517,0.87578 1.29806,0.9349 0.006,0.13021 -1.32389,2.37335 -1.56427,2.63774 -0.1343,0.14771 -0.36227,0.0696 -1.06825,-0.3662 z"
       id="path3387-6" /><path
       style="fill:#135184;fill-opacity:1;stroke:none;stroke-width:0.270788;stroke-dasharray:none;stroke-opacity:0.208643"
       d="m 220.89236,77.170136 c -0.70329,-0.0707 -2.02338,-0.27264 -2.93353,-0.4487 -2.57492,-0.49809 -7.41003,-2.16945 -7.27193,-2.5137 0.028,-0.0698 0.4163,-0.73967 0.86287,-1.48851 l 0.81193,-1.36152 0.69244,0.3064 c 3.0257,1.33884 7.31258,2.21454 10.84105,2.21454 h 1.35986 v 1.73003 1.73003 l -1.54198,-0.02 c -0.84809,-0.011 -2.11741,-0.0778 -2.82071,-0.14857 z"
       id="path3389-3" /><path
       style="fill:#1da69f;fill-opacity:1;stroke:none;stroke-width:0.541576;stroke-dasharray:none;stroke-opacity:0.208643"
       d="m 228.70023,75.267786 0.0901,-1.68573 2.25657,-0.56155 c 1.2411,-0.30886 3.67819,-1.2745 5.41575,-2.14588 1.73755,-0.87138 3.23942,-1.62235 3.33748,-1.66883 0.0981,-0.0465 0.56533,0.47397 1.03836,1.15656 l 0.86006,1.24106 -0.71246,0.53741 c -2.01498,1.5199 -8.16896,4.0207 -11.38323,4.62581 l -0.99272,0.18689 z"
       id="path3391-2" /><path
       style="fill:#1da69f;fill-opacity:1;stroke:none;stroke-width:0.541576;stroke-dasharray:none;stroke-opacity:0.208643"
       d="m 243.56892,68.106876 c -0.43335,-0.56814 -0.7879,-1.14922 -0.7879,-1.29129 0,-0.14207 0.61675,-0.86192 1.37057,-1.59967 1.02357,-1.00176 3.83738,-4.75675 4.22278,-5.63525 0.0197,-0.0449 0.71898,0.23488 1.55396,0.62173 l 1.51814,0.70337 -1.54963,2.30834 c -1.50361,2.23977 -4.79683,5.92576 -5.29434,5.92576 -0.13513,0 -0.60024,-0.46485 -1.03358,-1.03299 z"
       id="path3393-0" /><rect
       style="fill:#135184;fill-opacity:1;stroke:none;stroke-width:0.264583;stroke-dasharray:none;stroke-opacity:1"
       id="rect1136-6"
       width="2.5314984"
       height="5.4751959"
       x="214.84303"
       y="28.996674"
       ry="0.63759112" /><rect
       style="fill:#135184;fill-opacity:1;stroke:none;stroke-width:0.264583;stroke-dasharray:none;stroke-opacity:1"
       id="rect1138-1"
       width="2.5314984"
       height="5.4751959"
       x="233.15047"
       y="28.927795"
       ry="0.63759112" /><path
       style="fill:#1da69f;fill-opacity:1;stroke:none;stroke-width:0.311478;stroke-dasharray:none;stroke-opacity:1"
       d="m 220.68818,50.061326 4.20393,-8.38838 v 0 l 2.85219,5.93782 v 0 z"
       id="path7123" /><path
       style="fill:#135184;fill-opacity:1;stroke:none;stroke-width:0.191476;stroke-dasharray:none;stroke-opacity:0.208643"
       d="m 234.04217,55.916066 c -1.25446,-2.61065 -2.28085,-4.8 -2.28085,-4.86521 0,-0.0652 -0.0791,-0.13382 -0.17584,-0.15245 -0.0967,-0.0186 -3.90898,1.48255 -8.47171,3.33595 l -8.29586,3.36982 -0.5702,1.4866 -0.5702,1.48661 -1.93303,-0.0377 c -1.06316,-0.0207 -1.96217,-0.0668 -1.9978,-0.10244 -0.0356,-0.0356 2.89992,-6.33015 6.52345,-13.98782 l 6.58822,-13.92304 1.47297,0.0297 c 0.81014,0.0164 1.80806,0.0578 2.21761,0.0921 l 0.74462,0.0623 6.32934,13.35136 c 3.48113,7.34326 6.45802,13.6325 6.6153,13.9761 l 0.28598,0.62472 h -2.10057 -2.10057 z m -10.43574,-4.50053 c 3.82272,-1.45763 6.97765,-2.67749 7.01095,-2.71079 0.0729,-0.0729 -0.52346,-1.32805 -3.54189,-7.4542 l -2.30549,-4.67918 -0.2602,0.51198 c -0.2886,0.56789 -7.36154,15.53984 -7.75965,16.42562 -0.13806,0.30716 -0.21571,0.5581 -0.17257,0.55764 0.0431,-5.3e-4 3.20612,-1.19343 7.02885,-2.65107 z"
       id="path7127" /><text
       xml:space="preserve"
       style="font-style:normal;font-variant:normal;font-weight:normal;font-stretch:normal;font-size:25.4px;font-family:'Noto Sans Yi';-inkscape-font-specification:'Noto Sans Yi';fill:#135184;fill-opacity:1;stroke:none;stroke-width:0.47625;stroke-dasharray:none;stroke-opacity:0.208643"
       x="253.09885"
       y="51.852852"
       id="text7949"><tspan
         sodipodi:role="line"
         id="tspan7947"
         style="font-style:normal;font-variant:normal;font-weight:bold;font-stretch:normal;font-size:25.4px;font-family:Tuffy;-inkscape-font-specification:'Tuffy Bold';stroke-width:0.47625"
         x="253.09885"
         y="51.852852">genday</tspan></text><path
       style="fill:#135184;fill-opacity:1;stroke:none;stroke-width:0.38295;stroke-dasharray:none;stroke-opacity:0.208643"
       d="m 211.03665,19.424165 -0.95478,-1.36581 1.73615,-0.73594 c 3.56559,-1.51142 6.36608,-2.2069 9.87385,-2.45211 l 2.18069,-0.15243 v 1.63787 1.63787 l -1.22331,0.12708 c -3.77733,0.39243 -6.6321,1.05598 -9.20853,2.14039 -0.69114,0.2909 -1.29997,0.5289 -1.35296,0.5289 -0.053,0 -0.52599,-0.61462 -1.05111,-1.36582 z"
       id="path8456" /></g></svg>
