<?xml version="1.0" encoding="UTF-8" standalone="no"?>
<!-- Created with Inkscape (http://www.inkscape.org/) -->

<svg
   width="222.30876"
   height="236.67769"
   viewBox="0 0 58.819166 62.620973"
   version="1.1"
   id="svg5"
   xml:space="preserve"
   inkscape:version="1.2.2 (b0a8486541, 2022-12-01)"
   sodipodi:docname="logo_.svg"
   xmlns:inkscape="http://www.inkscape.org/namespaces/inkscape"
   xmlns:sodipodi="http://sodipodi.sourceforge.net/DTD/sodipodi-0.dtd"
   xmlns="http://www.w3.org/2000/svg"
   xmlns:svg="http://www.w3.org/2000/svg"><sodipodi:namedview
     id="namedview7"
     pagecolor="#ffffff"
     bordercolor="#000000"
     borderopacity="0.25"
     inkscape:showpageshadow="2"
     inkscape:pageopacity="0.0"
     inkscape:pagecheckerboard="0"
     inkscape:deskcolor="#d1d1d1"
     inkscape:document-units="px"
     showgrid="false"
     showborder="false"
     borderlayer="true"
     shape-rendering="auto"
     inkscape:zoom="0.31090769"
     inkscape:cx="651.31873"
     inkscape:cy="640.06137"
     inkscape:window-width="1600"
     inkscape:window-height="876"
     inkscape:window-x="0"
     inkscape:window-y="0"
     inkscape:window-maximized="1"
     inkscape:current-layer="layer1"><inkscape:grid
       type="xygrid"
       id="grid9"
       originx="0"
       originy="0" /></sodipodi:namedview><defs
     id="defs2" /><g
     inkscape:label="Layer 1"
     inkscape:groupmode="layer"
     id="layer1"
     transform="translate(-9.1401694,-107.25487)"><path
       style="fill:none;stroke:#000000;stroke-width:0.47625;stroke-dasharray:none;stroke-opacity:0.208643"
       d="M 41.269292,156.04083 V 121.64494"
       id="path12130"
       inkscape:export-filename="agenday-icones/versao_sem_texto_v1.png"
       inkscape:export-xdpi="96"
       inkscape:export-ydpi="96" /><path
       style="fill:none;stroke:#000000;stroke-width:0.47625;stroke-dasharray:none;stroke-opacity:0.208643"
       d="m 22.748452,138.84291 h 37.04167"
       id="path12132" /><path
       style="fill:none;stroke:#000000;stroke-width:0.47625;stroke-dasharray:none;stroke-opacity:0.208643"
       d="m 32.008872,121.64494 v 17.19797"
       id="path12134" /><path
       style="fill:none;stroke:#000000;stroke-width:0.456302;stroke-dasharray:none;stroke-opacity:0.208643"
       d="m 50.529712,121.84102 v 17.00189"
       id="path12136" /><path
       style="fill:none;stroke:#000000;stroke-width:0.47625;stroke-dasharray:none;stroke-opacity:0.208643"
       d="m 26.717212,132.22833 h 29.10416"
       id="path12138" /><path
       style="fill:#000000;stroke-width:0.264583"
       d="m 25.794932,152.83549 13.52574,-28.42955"
       id="path12140" /><rect
       style="fill:#135184;fill-opacity:1;stroke:none;stroke-width:0.268634;stroke-dasharray:none;stroke-opacity:1"
       id="rect12142"
       width="1.8254203"
       height="3.0775585"
       x="40.71204"
       y="112.63225"
       ry="0.62972075" /><rect
       style="fill:#135184;fill-opacity:1;stroke:none;stroke-width:0.205705;stroke-dasharray:none;stroke-opacity:1"
       id="rect12144"
       width="0.96437472"
       height="1.8825736"
       x="-44.066875"
       y="111.38432"
       ry="0.23178889"
       transform="rotate(-34.944382)" /><rect
       style="fill:#135184;fill-opacity:1;stroke:none;stroke-width:0.264583;stroke-dasharray:none;stroke-opacity:1"
       id="rect12146"
       width="1.044402"
       height="1.9475359"
       x="-106.85914"
       y="69.332352"
       ry="0.23248847"
       transform="rotate(-65.093477)" /><rect
       style="fill:#135184;fill-opacity:1;stroke:none;stroke-width:0.260001;stroke-dasharray:none;stroke-opacity:1"
       id="rect12148"
       width="3.0083196"
       height="1.8560203"
       x="14.149534"
       y="137.83449"
       ry="0.11778968" /><rect
       style="fill:#135184;fill-opacity:1;stroke:none;stroke-width:0.220265;stroke-dasharray:none;stroke-opacity:1"
       id="rect12150"
       width="1.7370628"
       height="0.69499105"
       x="-50.174236"
       y="144.07434"
       ry="0.045492906"
       transform="rotate(-25.975489)" /><rect
       style="fill:#135184;fill-opacity:1;stroke:none;stroke-width:0.242564;stroke-dasharray:none;stroke-opacity:1"
       id="rect12152"
       width="1.7895533"
       height="0.78694993"
       x="-123.91442"
       y="106.64993"
       ry="0.050098326"
       transform="rotate(-59.130815)" /><rect
       style="fill:#135184;fill-opacity:1;stroke:none;stroke-width:0.248049;stroke-dasharray:none;stroke-opacity:1"
       id="rect12154"
       width="2.1434445"
       height="3.2662103"
       x="40.601612"
       y="161.63904"
       ry="0.28497112" /><ellipse
       style="fill:#135184;fill-opacity:1;stroke:none;stroke-width:0.264583;stroke-dasharray:none;stroke-opacity:1"
       id="ellipse12156"
       cx="49.32291"
       cy="110.51926"
       rx="1.2762717"
       ry="1.3051027" /><ellipse
       style="fill:#135184;fill-opacity:1;stroke:none;stroke-width:0.264583;stroke-dasharray:none;stroke-opacity:1"
       id="ellipse12158"
       cx="56.454319"
       cy="113.98746"
       rx="1.2762717"
       ry="1.3051027" /><ellipse
       style="fill:#1ea7a0;fill-opacity:1;stroke:none;stroke-width:0.264583;stroke-dasharray:none;stroke-opacity:1"
       id="ellipse12160"
       cx="61.81432"
       cy="118.53481"
       rx="1.2762717"
       ry="1.3051027" /><ellipse
       style="fill:#1ea7a0;fill-opacity:1;stroke:none;stroke-width:0.264583;stroke-dasharray:none;stroke-opacity:1"
       id="ellipse12162"
       cx="66.683075"
       cy="125.40572"
       rx="1.2762717"
       ry="1.3051027" /><path
       style="fill:none;stroke:#000000;stroke-width:0.47625;stroke-dasharray:none;stroke-opacity:0.208643"
       d="m 25.394292,121.64494 v 34.39589"
       id="path12164" /><path
       style="fill:none;stroke:#000000;stroke-width:0.47625;stroke-dasharray:none;stroke-opacity:0.208643"
       d="m 22.748452,124.29079 h 37.04167"
       id="path12166" /><path
       style="fill:none;stroke:#000000;stroke-width:0.47625;stroke-dasharray:none;stroke-opacity:0.208643"
       d="m 57.144292,121.64494 v 34.39589"
       id="path12168" /><path
       style="fill:none;stroke:#000000;stroke-width:0.47625;stroke-dasharray:none;stroke-opacity:0.208643"
       d="m 22.748452,153.395 h 37.04167"
       id="path12170" /><path
       style="fill:#135184;fill-opacity:1;stroke:none;stroke-width:0.270788;stroke-dasharray:none;stroke-opacity:0.208643"
       d="m 9.1401689,136.86252 c 0,-1.99882 1.0279101,-6.83933 1.9503711,-9.18441 0.65084,-1.65457 1.53519,-3.5353 1.662351,-3.5353 0.0941,0 2.874501,1.32938 2.970501,1.42028 0.0216,0.0204 -0.26209,0.67389 -0.63034,1.45216 -1.27292,2.69032 -2.222871,6.21821 -2.436551,9.04879 l -0.0994,1.31731 h -1.708452 -1.70844 z"
       id="path12172" /><path
       style="fill:#135184;fill-opacity:1;stroke:none;stroke-width:0.270788;stroke-dasharray:none;stroke-opacity:0.208643"
       d="m 15.571372,122.61033 c -0.80672,-0.39166 -1.46677,-0.77399 -1.46677,-0.84962 0,-0.28977 2.34993,-3.27041 3.65307,-4.63351 1.60165,-1.67537 3.17615,-3.01626 5.01583,-4.27163 1.20031,-0.81906 1.33624,-0.87749 1.43299,-0.61594 0.0588,0.15892 0.45009,0.76993 0.86956,1.35779 0.41948,0.58788 0.76127,1.11939 0.75955,1.18114 -0.002,0.0618 -0.42483,0.38939 -0.94024,0.72808 -2.36806,1.55611 -5.13907,4.19217 -6.87637,6.54149 -0.51542,0.697 -0.94696,1.26885 -0.95899,1.27078 -0.012,0.002 -0.68191,-0.31692 -1.48863,-0.70858 z"
       id="path12174" /><path
       style="fill:#135184;fill-opacity:1;stroke:none;stroke-width:0.270788;stroke-dasharray:none;stroke-opacity:0.208643"
       d="m 12.13547,152.03501 c -0.89328,-1.90815 -1.782221,-4.43566 -2.2172811,-6.30439 -0.3044,-1.30745 -0.77802,-4.51744 -0.77802,-5.27301 v -0.36839 h 1.6995701 1.699571 l 0.172891,1.54718 c 0.34982,3.13048 1.169731,6.06621 2.462631,8.81759 0.40426,0.86029 0.73502,1.58742 0.73502,1.61583 0,0.0284 -0.68031,0.39305 -1.5118,0.81031 l -1.511801,0.75866 z"
       id="path12176" /><path
       style="fill:#135184;fill-opacity:1;stroke:none;stroke-width:0.270788;stroke-dasharray:none;stroke-opacity:0.208643"
       d="m 23.802702,165.10909 c -2.92763,-1.80708 -6.33105,-4.93165 -8.38815,-7.70088 -0.63773,-0.8585 -1.15951,-1.60587 -1.15951,-1.66081 0,-0.12463 2.98212,-1.60093 3.04799,-1.5089 2.39755,3.34989 4.86522,5.76401 7.83413,7.66415 0.71104,0.45508 1.29517,0.87578 1.29806,0.9349 0.006,0.13021 -1.32389,2.37335 -1.56427,2.63774 -0.1343,0.14771 -0.36227,0.0696 -1.06825,-0.3662 z"
       id="path12178" /><path
       style="fill:#135184;fill-opacity:1;stroke:none;stroke-width:0.270788;stroke-dasharray:none;stroke-opacity:0.208643"
       d="m 37.271972,169.70727 c -0.70329,-0.0707 -2.02338,-0.27264 -2.93353,-0.4487 -2.57492,-0.49809 -7.41003,-2.16945 -7.27193,-2.5137 0.028,-0.0698 0.4163,-0.73967 0.86287,-1.48851 l 0.81193,-1.36152 0.69244,0.3064 c 3.0257,1.33884 7.31258,2.21454 10.84105,2.21454 h 1.35986 v 1.73003 1.73003 l -1.54198,-0.02 c -0.84809,-0.011 -2.11741,-0.0778 -2.82071,-0.14857 z"
       id="path12180" /><path
       style="fill:#1da69f;fill-opacity:1;stroke:none;stroke-width:0.541576;stroke-dasharray:none;stroke-opacity:0.208643"
       d="m 45.079842,167.80492 0.0901,-1.68573 2.25657,-0.56155 c 1.2411,-0.30886 3.67819,-1.2745 5.41575,-2.14588 1.73755,-0.87138 3.23942,-1.62235 3.33748,-1.66883 0.0981,-0.0465 0.56533,0.47397 1.03836,1.15656 l 0.86006,1.24106 -0.71246,0.53741 c -2.01498,1.5199 -8.16896,4.0207 -11.38323,4.62581 l -0.99272,0.18689 z"
       id="path12182" /><path
       style="fill:#1da69f;fill-opacity:1;stroke:none;stroke-width:0.541576;stroke-dasharray:none;stroke-opacity:0.208643"
       d="m 59.948532,160.64401 c -0.43335,-0.56814 -0.7879,-1.14922 -0.7879,-1.29129 0,-0.14207 0.61675,-0.86192 1.37057,-1.59967 1.02357,-1.00176 3.83738,-4.75675 4.22278,-5.63525 0.0197,-0.0449 0.71898,0.23488 1.55396,0.62173 l 1.51814,0.70337 -1.54963,2.30834 c -1.50361,2.23977 -4.79683,5.92576 -5.29434,5.92576 -0.13513,0 -0.60024,-0.46485 -1.03358,-1.03299 z"
       id="path12184" /><rect
       style="fill:#135184;fill-opacity:1;stroke:none;stroke-width:0.264583;stroke-dasharray:none;stroke-opacity:1"
       id="rect12186"
       width="2.5314984"
       height="5.4751959"
       x="31.222647"
       y="121.53362"
       ry="0.63759112" /><rect
       style="fill:#135184;fill-opacity:1;stroke:none;stroke-width:0.264583;stroke-dasharray:none;stroke-opacity:1"
       id="rect12188"
       width="2.5314984"
       height="5.4751959"
       x="49.530079"
       y="121.46468"
       ry="0.63759112" /><path
       style="fill:#1da69f;fill-opacity:1;stroke:none;stroke-width:0.311478;stroke-dasharray:none;stroke-opacity:1"
       d="m 37.067792,142.59846 4.20393,-8.38838 v 0 l 2.85219,5.93782 v 0 z"
       id="path12190" /><path
       style="fill:#135184;fill-opacity:1;stroke:none;stroke-width:0.191476;stroke-dasharray:none;stroke-opacity:0.208643"
       d="m 50.421782,148.4532 c -1.25446,-2.61065 -2.28085,-4.8 -2.28085,-4.86521 0,-0.0652 -0.0791,-0.13382 -0.17584,-0.15245 -0.0967,-0.0186 -3.90898,1.48255 -8.47171,3.33595 l -8.29586,3.36982 -0.5702,1.4866 -0.5702,1.48661 -1.93303,-0.0377 c -1.06316,-0.0207 -1.96217,-0.0668 -1.9978,-0.10244 -0.0356,-0.0356 2.89992,-6.33015 6.52345,-13.98782 l 6.58822,-13.92308 1.47297,0.0297 c 0.81014,0.0164 1.80806,0.0578 2.21761,0.0921 l 0.74462,0.0623 6.32934,13.3514 c 3.48113,7.34326 6.45802,13.6325 6.6153,13.9761 l 0.28598,0.62472 h -2.10057 -2.10057 z m -10.43574,-4.50053 c 3.82272,-1.45763 6.97765,-2.67749 7.01095,-2.71079 0.0729,-0.0729 -0.52346,-1.32805 -3.54189,-7.4542 l -2.30549,-4.67919 -0.2602,0.51198 c -0.2886,0.56789 -7.36154,15.53985 -7.75965,16.42563 -0.13806,0.30716 -0.21571,0.5581 -0.17257,0.55764 0.0431,-5.3e-4 3.20612,-1.19343 7.02885,-2.65107 z"
       id="path12192" /><path
       style="fill:#135184;fill-opacity:1;stroke:none;stroke-width:0.38295;stroke-dasharray:none;stroke-opacity:0.208643"
       d="m 27.416262,111.96119 -0.95478,-1.36582 1.73615,-0.73595 c 3.56559,-1.51143 6.36608,-2.20691 9.87385,-2.45212 l 2.18069,-0.15243 v 1.63788 1.63788 l -1.22331,0.12708 c -3.77733,0.39243 -6.6321,1.05599 -9.20853,2.1404 -0.69114,0.2909 -1.29997,0.5289 -1.35296,0.5289 -0.053,0 -0.52599,-0.61462 -1.05111,-1.36582 z"
       id="path12198" /></g></svg>
