<?xml version="1.0" encoding="UTF-8" standalone="no"?>
<!-- Created with Inkscape (http://www.inkscape.org/) -->

<svg
   width="222.3085"
   height="236.67769"
   viewBox="0 0 58.819098 62.620973"
   version="1.1"
   id="svg5"
   xml:space="preserve"
   inkscape:version="1.2.2 (b0a8486541, 2022-12-01)"
   sodipodi:docname="logo_.svg"
   xmlns:inkscape="http://www.inkscape.org/namespaces/inkscape"
   xmlns:sodipodi="http://sodipodi.sourceforge.net/DTD/sodipodi-0.dtd"
   xmlns="http://www.w3.org/2000/svg"
   xmlns:svg="http://www.w3.org/2000/svg"><sodipodi:namedview
     id="namedview7"
     pagecolor="#ffffff"
     bordercolor="#000000"
     borderopacity="0.25"
     inkscape:showpageshadow="2"
     inkscape:pageopacity="0.0"
     inkscape:pagecheckerboard="0"
     inkscape:deskcolor="#d1d1d1"
     inkscape:document-units="px"
     showgrid="false"
     showborder="false"
     borderlayer="true"
     shape-rendering="auto"
     inkscape:zoom="0.31090769"
     inkscape:cx="651.31873"
     inkscape:cy="640.06137"
     inkscape:window-width="1600"
     inkscape:window-height="876"
     inkscape:window-x="0"
     inkscape:window-y="0"
     inkscape:window-maximized="1"
     inkscape:current-layer="layer1"><inkscape:grid
       type="xygrid"
       id="grid9"
       originx="0"
       originy="0" /></sodipodi:namedview><defs
     id="defs2" /><g
     inkscape:label="Layer 1"
     inkscape:groupmode="layer"
     id="layer1"
     transform="translate(-88.539549,-107.87059)"><path
       style="fill:none;stroke:#000000;stroke-width:0.47625;stroke-dasharray:none;stroke-opacity:0.208643"
       d="M 120.66869,156.65655 V 122.26067"
       id="path12200"
       inkscape:export-filename="agenday-icones/versao_sem_texto_v2.png"
       inkscape:export-xdpi="96"
       inkscape:export-ydpi="96" /><path
       style="fill:none;stroke:#000000;stroke-width:0.47625;stroke-dasharray:none;stroke-opacity:0.208643"
       d="m 102.14785,139.45863 h 37.04167"
       id="path12202" /><path
       style="fill:none;stroke:#000000;stroke-width:0.47625;stroke-dasharray:none;stroke-opacity:0.208643"
       d="m 111.40827,122.26067 v 17.19796"
       id="path12204" /><path
       style="fill:none;stroke:#000000;stroke-width:0.456302;stroke-dasharray:none;stroke-opacity:0.208643"
       d="m 129.92911,122.45675 v 17.00188"
       id="path12206" /><path
       style="fill:none;stroke:#000000;stroke-width:0.47625;stroke-dasharray:none;stroke-opacity:0.208643"
       d="m 106.11661,132.84405 h 29.10416"
       id="path12208" /><path
       style="fill:#000000;stroke-width:0.264583"
       d="m 105.19433,153.45121 13.52574,-28.42954"
       id="path12210" /><rect
       style="fill:#666666;fill-opacity:1;stroke:none;stroke-width:0.268634;stroke-dasharray:none;stroke-opacity:1"
       id="rect12212"
       width="1.8254203"
       height="3.0775585"
       x="120.11143"
       y="113.24797"
       ry="0.62972075" /><rect
       style="fill:#666666;fill-opacity:1;stroke:none;stroke-width:0.205705;stroke-dasharray:none;stroke-opacity:1"
       id="rect12214"
       width="0.96437472"
       height="1.8825736"
       x="20.664783"
       y="157.36755"
       ry="0.23178889"
       transform="rotate(-34.944382)" /><rect
       style="fill:#666666;fill-opacity:1;stroke:none;stroke-width:0.264583;stroke-dasharray:none;stroke-opacity:1"
       id="rect12216"
       width="1.044402"
       height="1.9475359"
       x="-73.979546"
       y="141.60657"
       ry="0.23248847"
       transform="rotate(-65.093477)" /><rect
       style="fill:#666666;fill-opacity:1;stroke:none;stroke-width:0.260001;stroke-dasharray:none;stroke-opacity:1"
       id="rect12218"
       width="3.0083196"
       height="1.8560203"
       x="93.548904"
       y="138.45023"
       ry="0.11778968" /><rect
       style="fill:#666666;fill-opacity:1;stroke:none;stroke-width:0.220265;stroke-dasharray:none;stroke-opacity:1"
       id="rect12220"
       width="1.7370628"
       height="0.69499105"
       x="20.934746"
       y="179.40373"
       ry="0.045492906"
       transform="rotate(-25.975489)" /><rect
       style="fill:#666666;fill-opacity:1;stroke:none;stroke-width:0.242564;stroke-dasharray:none;stroke-opacity:1"
       id="rect12222"
       width="1.7895533"
       height="0.78694993"
       x="-83.704666"
       y="175.11716"
       ry="0.050098326"
       transform="rotate(-59.130815)" /><rect
       style="fill:#666666;fill-opacity:1;stroke:none;stroke-width:0.248049;stroke-dasharray:none;stroke-opacity:1"
       id="rect12224"
       width="2.1434445"
       height="3.2662103"
       x="120.00098"
       y="162.25478"
       ry="0.28497112" /><ellipse
       style="fill:#666666;fill-opacity:1;stroke:none;stroke-width:0.264583;stroke-dasharray:none;stroke-opacity:1"
       id="ellipse12226"
       cx="128.72227"
       cy="111.13496"
       rx="1.2762717"
       ry="1.3051027" /><ellipse
       style="fill:#666666;fill-opacity:1;stroke:none;stroke-width:0.264583;stroke-dasharray:none;stroke-opacity:1"
       id="ellipse12228"
       cx="135.85362"
       cy="114.60322"
       rx="1.2762717"
       ry="1.3051027" /><ellipse
       style="fill:#cccccc;fill-opacity:1;stroke:none;stroke-width:0.264583;stroke-dasharray:none;stroke-opacity:1"
       id="ellipse12230"
       cx="141.21362"
       cy="119.15051"
       rx="1.2762717"
       ry="1.3051027" /><ellipse
       style="fill:#cccccc;fill-opacity:1;stroke:none;stroke-width:0.264583;stroke-dasharray:none;stroke-opacity:1"
       id="ellipse12232"
       cx="146.08238"
       cy="126.02143"
       rx="1.2762717"
       ry="1.3051027" /><path
       style="fill:none;stroke:#000000;stroke-width:0.47625;stroke-dasharray:none;stroke-opacity:0.208643"
       d="m 104.79369,122.26067 v 34.39588"
       id="path12234" /><path
       style="fill:none;stroke:#000000;stroke-width:0.47625;stroke-dasharray:none;stroke-opacity:0.208643"
       d="m 102.14785,124.90652 h 37.04167"
       id="path12236" /><path
       style="fill:none;stroke:#000000;stroke-width:0.47625;stroke-dasharray:none;stroke-opacity:0.208643"
       d="m 136.54369,122.26067 v 34.39588"
       id="path12238" /><path
       style="fill:none;stroke:#000000;stroke-width:0.47625;stroke-dasharray:none;stroke-opacity:0.208643"
       d="m 102.14785,154.01072 h 37.04167"
       id="path12240" /><path
       style="fill:#666666;fill-opacity:1;stroke:none;stroke-width:0.270788;stroke-dasharray:none;stroke-opacity:0.208643"
       d="m 88.539544,137.47824 c 0,-1.99882 1.02792,-6.83932 1.95038,-9.1844 0.65084,-1.65457 1.53518,-3.5353 1.66234,-3.5353 0.0941,0 2.8745,1.32938 2.9705,1.42028 0.0216,0.0204 -0.26209,0.67389 -0.63033,1.45216 -1.27293,2.69032 -2.22288,6.2182 -2.43656,9.04878 l -0.0994,1.31731 h -1.70845 -1.70844 z"
       id="path12242" /><path
       style="fill:#666666;fill-opacity:1;stroke:none;stroke-width:0.270788;stroke-dasharray:none;stroke-opacity:0.208643"
       d="m 94.970744,123.22606 c -0.80672,-0.39165 -1.46676,-0.77399 -1.46676,-0.84962 0,-0.28977 2.34993,-3.2704 3.65306,-4.63351 1.60166,-1.67537 3.176146,-3.01626 5.015846,-4.27163 1.20031,-0.81906 1.33624,-0.87749 1.43299,-0.61594 0.0588,0.15892 0.4501,0.76993 0.86958,1.3578 0.41947,0.58787 0.76126,1.11938 0.75954,1.18113 -0.002,0.0618 -0.42483,0.38939 -0.94024,0.72808 -2.36807,1.55611 -5.139096,4.19217 -6.876396,6.54149 -0.51541,0.697 -0.94696,1.26885 -0.95899,1.27078 -0.012,0.002 -0.68191,-0.31692 -1.48863,-0.70858 z"
       id="path12244" /><path
       style="fill:#666666;fill-opacity:1;stroke:none;stroke-width:0.270788;stroke-dasharray:none;stroke-opacity:0.208643"
       d="m 91.534844,152.65073 c -0.89328,-1.90815 -1.78221,-4.43566 -2.21728,-6.30439 -0.30439,-1.30745 -0.77802,-4.51744 -0.77802,-5.27301 v -0.36839 h 1.69957 1.69957 l 0.17289,1.54718 c 0.34982,3.13048 1.16973,6.06621 2.46263,8.81759 0.40426,0.86029 0.73502,1.58742 0.73502,1.61583 0,0.0284 -0.68031,0.39305 -1.5118,0.81031 l -1.5118,0.75866 z"
       id="path12246" /><path
       style="fill:#666666;fill-opacity:1;stroke:none;stroke-width:0.270788;stroke-dasharray:none;stroke-opacity:0.208643"
       d="m 103.2021,165.72481 c -2.92766,-1.80708 -6.331076,-4.93165 -8.388176,-7.70088 -0.63773,-0.8585 -1.15951,-1.60587 -1.15951,-1.66081 0,-0.12463 2.98212,-1.60093 3.04799,-1.5089 2.39756,3.34989 4.865226,5.76401 7.834156,7.66415 0.71104,0.45508 1.29517,0.87578 1.29806,0.9349 0.006,0.13021 -1.32389,2.37335 -1.56427,2.63774 -0.13431,0.14771 -0.36228,0.0696 -1.06825,-0.3662 z"
       id="path12248" /><path
       style="fill:#666666;fill-opacity:1;stroke:none;stroke-width:0.270788;stroke-dasharray:none;stroke-opacity:0.208643"
       d="m 116.67137,170.32299 c -0.70329,-0.0707 -2.02338,-0.27264 -2.93353,-0.4487 -2.57492,-0.49809 -7.41003,-2.16945 -7.27193,-2.5137 0.028,-0.0698 0.4163,-0.73967 0.86287,-1.48851 l 0.81193,-1.36152 0.69244,0.3064 c 3.0257,1.33884 7.31258,2.21454 10.84105,2.21454 h 1.35986 v 1.73003 1.73003 l -1.54198,-0.02 c -0.84809,-0.011 -2.11741,-0.0778 -2.82071,-0.14857 z"
       id="path12250" /><path
       style="fill:#cccccc;fill-opacity:1;stroke:none;stroke-width:0.541576;stroke-dasharray:none;stroke-opacity:0.208643"
       d="m 124.47924,168.42064 0.0901,-1.68573 2.25657,-0.56155 c 1.2411,-0.30886 3.67819,-1.2745 5.41575,-2.14588 1.73755,-0.87138 3.23942,-1.62235 3.33748,-1.66883 0.0981,-0.0465 0.56533,0.47397 1.03836,1.15656 l 0.86006,1.24106 -0.71246,0.53741 c -2.01498,1.5199 -8.16896,4.0207 -11.38323,4.62581 l -0.99272,0.18689 z"
       id="path12252" /><path
       style="fill:#cccccc;fill-opacity:1;stroke:none;stroke-width:0.541576;stroke-dasharray:none;stroke-opacity:0.208643"
       d="m 139.34793,161.25973 c -0.43335,-0.56814 -0.7879,-1.14922 -0.7879,-1.29129 0,-0.14207 0.61675,-0.86192 1.37057,-1.59967 1.02357,-1.00176 3.83738,-4.75675 4.22278,-5.63525 0.0197,-0.0449 0.71898,0.23488 1.55396,0.62173 l 1.51814,0.70337 -1.54963,2.30834 c -1.50361,2.23977 -4.79683,5.92576 -5.29434,5.92576 -0.13513,0 -0.60024,-0.46485 -1.03358,-1.03299 z"
       id="path12254" /><rect
       style="fill:#666666;fill-opacity:1;stroke:none;stroke-width:0.264583;stroke-dasharray:none;stroke-opacity:1"
       id="rect12256"
       width="2.5314984"
       height="5.4751959"
       x="110.62199"
       y="122.14933"
       ry="0.63759112" /><rect
       style="fill:#666666;fill-opacity:1;stroke:none;stroke-width:0.264583;stroke-dasharray:none;stroke-opacity:1"
       id="rect12258"
       width="2.5314984"
       height="5.4751959"
       x="128.92944"
       y="122.08049"
       ry="0.63759112" /><path
       style="fill:#cccccc;fill-opacity:1;stroke:none;stroke-width:0.311478;stroke-dasharray:none;stroke-opacity:1"
       d="m 116.46719,143.21418 4.20393,-8.38838 v 0 l 2.85219,5.93782 v 0 z"
       id="path12260" /><path
       style="fill:#666666;fill-opacity:1;stroke:none;stroke-width:0.191476;stroke-dasharray:none;stroke-opacity:0.208643"
       d="m 129.82118,149.06892 c -1.25446,-2.61065 -2.28085,-4.8 -2.28085,-4.86521 0,-0.0652 -0.0791,-0.13382 -0.17584,-0.15245 -0.0967,-0.0186 -3.90898,1.48255 -8.47171,3.33595 l -8.29586,3.36982 -0.5702,1.4866 -0.5702,1.48661 -1.93303,-0.0377 c -1.06316,-0.0207 -1.96217,-0.0668 -1.9978,-0.10244 -0.0356,-0.0356 2.89992,-6.33015 6.52345,-13.98782 l 6.58822,-13.92307 1.47297,0.0297 c 0.81014,0.0164 1.80806,0.0578 2.21761,0.0921 l 0.74462,0.0623 6.32934,13.35139 c 3.48113,7.34326 6.45802,13.6325 6.6153,13.9761 l 0.28598,0.62472 h -2.10057 -2.10057 z m -10.43574,-4.50053 c 3.82272,-1.45763 6.97765,-2.67749 7.01095,-2.71079 0.0729,-0.0729 -0.52346,-1.32805 -3.54189,-7.4542 l -2.30549,-4.67918 -0.2602,0.51198 c -0.2886,0.56789 -7.36154,15.53984 -7.75965,16.42562 -0.13806,0.30716 -0.21571,0.5581 -0.17257,0.55764 0.0431,-5.3e-4 3.20612,-1.19343 7.02885,-2.65107 z"
       id="path12262" /><path
       style="fill:#666666;fill-opacity:1;stroke:none;stroke-width:0.38295;stroke-dasharray:none;stroke-opacity:0.208643"
       d="m 106.81566,112.57692 -0.95478,-1.36582 1.73615,-0.73595 c 3.56559,-1.51142 6.36608,-2.20691 9.87385,-2.45212 l 2.18069,-0.15243 v 1.63788 1.63788 l -1.22331,0.12708 c -3.77733,0.39243 -6.6321,1.05599 -9.20853,2.1404 -0.69114,0.2909 -1.29997,0.52891 -1.35296,0.52891 -0.053,0 -0.52599,-0.61463 -1.05111,-1.36583 z"
       id="path12268" /></g></svg>
